<svg width="350" height="144" viewBox="0 0 350 144" fill="none" xmlns="http://www.w3.org/2000/svg">
<g clip-path="url(#clip0_72139_90)">
<path d="M0 15C0 6.71573 6.71573 0 15 0H335C343.284 0 350 6.71573 350 15V144H0V15Z" fill="#41CBD3"/>
<mask id="mask0_72139_90" style="mask-type:luminance" maskUnits="userSpaceOnUse" x="0" y="0" width="350" height="144">
<path d="M0 15C0 6.71573 6.71573 0 15 0H335C343.284 0 350 6.71573 350 15V144H0V15Z" fill="white"/>
</mask>
<g mask="url(#mask0_72139_90)">
<ellipse opacity="0.5" cx="49.4785" cy="12.8" rx="14.8" ry="14.8344" transform="rotate(90 49.4785 12.8)" fill="url(#paint0_linear_72139_90)"/>
<ellipse opacity="0.5" cx="3.83435" cy="12.8" rx="14.8344" ry="14.8" transform="rotate(180 3.83435 12.8)" fill="url(#paint1_linear_72139_90)"/>
<ellipse opacity="0.5" cx="140.767" cy="12.8" rx="14.8344" ry="14.8" fill="url(#paint2_linear_72139_90)"/>
<ellipse opacity="0.5" cx="95.1227" cy="12.8" rx="14.8" ry="14.8344" transform="rotate(-90 95.1227 12.8)" fill="url(#paint3_linear_72139_90)"/>
<ellipse opacity="0.5" cx="232.055" cy="12.8" rx="14.8" ry="14.8344" transform="rotate(90 232.055 12.8)" fill="url(#paint4_linear_72139_90)"/>
<ellipse opacity="0.5" cx="186.411" cy="12.8" rx="14.8344" ry="14.8" transform="rotate(180 186.411 12.8)" fill="url(#paint5_linear_72139_90)"/>
<ellipse opacity="0.5" cx="323.344" cy="12.8" rx="14.8344" ry="14.8" fill="url(#paint6_linear_72139_90)"/>
<ellipse opacity="0.5" cx="277.699" cy="12.8" rx="14.8" ry="14.8344" transform="rotate(-90 277.699 12.8)" fill="url(#paint7_linear_72139_90)"/>
<ellipse opacity="0.5" cx="49.4785" cy="108.431" rx="14.8" ry="14.8344" transform="rotate(90 49.4785 108.431)" fill="url(#paint8_linear_72139_90)"/>
<ellipse opacity="0.5" cx="3.83435" cy="108.431" rx="14.8344" ry="14.8" transform="rotate(180 3.83435 108.431)" fill="url(#paint9_linear_72139_90)"/>
<ellipse opacity="0.5" cx="140.767" cy="108.431" rx="14.8344" ry="14.8" fill="url(#paint10_linear_72139_90)"/>
<ellipse opacity="0.5" cx="95.1227" cy="108.431" rx="14.8" ry="14.8344" transform="rotate(-90 95.1227 108.431)" fill="url(#paint11_linear_72139_90)"/>
<ellipse opacity="0.5" cx="232.055" cy="108.431" rx="14.8" ry="14.8344" transform="rotate(90 232.055 108.431)" fill="url(#paint12_linear_72139_90)"/>
<ellipse opacity="0.5" cx="186.411" cy="108.431" rx="14.8344" ry="14.8" transform="rotate(180 186.411 108.431)" fill="url(#paint13_linear_72139_90)"/>
<ellipse opacity="0.5" cx="323.344" cy="108.431" rx="14.8344" ry="14.8" fill="url(#paint14_linear_72139_90)"/>
<ellipse opacity="0.5" cx="277.699" cy="108.431" rx="14.8" ry="14.8344" transform="rotate(-90 277.699 108.431)" fill="url(#paint15_linear_72139_90)"/>
<ellipse opacity="0.5" cx="49.4785" cy="60.6154" rx="14.8" ry="14.8344" transform="rotate(-90 49.4785 60.6154)" fill="url(#paint16_linear_72139_90)"/>
<ellipse opacity="0.5" cx="3.83436" cy="60.6154" rx="14.8344" ry="14.8" fill="url(#paint17_linear_72139_90)"/>
<ellipse opacity="0.5" cx="140.767" cy="60.6154" rx="14.8344" ry="14.8" fill="url(#paint18_linear_72139_90)"/>
<ellipse opacity="0.5" cx="95.1227" cy="60.6154" rx="14.8" ry="14.8344" transform="rotate(90 95.1227 60.6154)" fill="url(#paint19_linear_72139_90)"/>
<ellipse opacity="0.5" cx="232.055" cy="60.6154" rx="14.8" ry="14.8344" transform="rotate(-90 232.055 60.6154)" fill="url(#paint20_linear_72139_90)"/>
<ellipse opacity="0.5" cx="186.411" cy="60.6154" rx="14.8344" ry="14.8" fill="url(#paint21_linear_72139_90)"/>
<ellipse opacity="0.5" cx="323.344" cy="60.6154" rx="14.8344" ry="14.8" fill="url(#paint22_linear_72139_90)"/>
<ellipse opacity="0.5" cx="277.699" cy="60.6154" rx="14.8" ry="14.8344" transform="rotate(90 277.699 60.6154)" fill="url(#paint23_linear_72139_90)"/>
<ellipse opacity="0.5" cx="72.3007" cy="35.5692" rx="14.8" ry="14.8344" transform="rotate(90 72.3007 35.5692)" fill="url(#paint24_linear_72139_90)"/>
<ellipse opacity="0.5" cx="26.6564" cy="35.5693" rx="14.8344" ry="14.8" transform="rotate(180 26.6564 35.5693)" fill="url(#paint25_linear_72139_90)"/>
<ellipse opacity="0.5" cx="163.589" cy="35.5692" rx="14.8344" ry="14.8" fill="url(#paint26_linear_72139_90)"/>
<ellipse opacity="0.5" cx="117.945" cy="35.5693" rx="14.8" ry="14.8344" transform="rotate(-90 117.945 35.5693)" fill="url(#paint27_linear_72139_90)"/>
<ellipse opacity="0.5" cx="254.877" cy="35.5692" rx="14.8" ry="14.8344" transform="rotate(90 254.877 35.5692)" fill="url(#paint28_linear_72139_90)"/>
<ellipse opacity="0.5" cx="209.233" cy="35.5693" rx="14.8344" ry="14.8" transform="rotate(180 209.233 35.5693)" fill="url(#paint29_linear_72139_90)"/>
<ellipse opacity="0.5" cx="346.166" cy="35.5692" rx="14.8344" ry="14.8" fill="url(#paint30_linear_72139_90)"/>
<ellipse opacity="0.5" cx="300.521" cy="35.5693" rx="14.8" ry="14.8344" transform="rotate(-90 300.521 35.5693)" fill="url(#paint31_linear_72139_90)"/>
<ellipse opacity="0.5" cx="72.3007" cy="131.2" rx="14.8" ry="14.8344" transform="rotate(90 72.3007 131.2)" fill="url(#paint32_linear_72139_90)"/>
<ellipse opacity="0.5" cx="26.6564" cy="131.2" rx="14.8344" ry="14.8" transform="rotate(180 26.6564 131.2)" fill="url(#paint33_linear_72139_90)"/>
<ellipse opacity="0.5" cx="163.589" cy="131.2" rx="14.8344" ry="14.8" fill="url(#paint34_linear_72139_90)"/>
<ellipse opacity="0.5" cx="117.945" cy="131.2" rx="14.8" ry="14.8344" transform="rotate(-90 117.945 131.2)" fill="url(#paint35_linear_72139_90)"/>
<ellipse opacity="0.5" cx="254.877" cy="131.2" rx="14.8" ry="14.8344" transform="rotate(90 254.877 131.2)" fill="url(#paint36_linear_72139_90)"/>
<ellipse opacity="0.5" cx="209.233" cy="131.2" rx="14.8344" ry="14.8" transform="rotate(180 209.233 131.2)" fill="url(#paint37_linear_72139_90)"/>
<ellipse opacity="0.5" cx="346.166" cy="131.2" rx="14.8344" ry="14.8" fill="url(#paint38_linear_72139_90)"/>
<ellipse opacity="0.5" cx="300.521" cy="131.2" rx="14.8" ry="14.8344" transform="rotate(-90 300.521 131.2)" fill="url(#paint39_linear_72139_90)"/>
<ellipse opacity="0.5" cx="72.3006" cy="83.3846" rx="14.8" ry="14.8344" transform="rotate(-90 72.3006 83.3846)" fill="url(#paint40_linear_72139_90)"/>
<ellipse opacity="0.5" cx="26.6564" cy="83.3846" rx="14.8344" ry="14.8" fill="url(#paint41_linear_72139_90)"/>
<ellipse opacity="0.5" cx="163.589" cy="83.3846" rx="14.8344" ry="14.8" fill="url(#paint42_linear_72139_90)"/>
<ellipse opacity="0.5" cx="117.945" cy="83.3846" rx="14.8" ry="14.8344" transform="rotate(90 117.945 83.3846)" fill="url(#paint43_linear_72139_90)"/>
<ellipse opacity="0.5" cx="254.877" cy="83.3846" rx="14.8" ry="14.8344" transform="rotate(-90 254.877 83.3846)" fill="url(#paint44_linear_72139_90)"/>
<ellipse opacity="0.5" cx="209.233" cy="83.3846" rx="14.8344" ry="14.8" fill="url(#paint45_linear_72139_90)"/>
<ellipse opacity="0.5" cx="346.166" cy="83.3846" rx="14.8344" ry="14.8" fill="url(#paint46_linear_72139_90)"/>
<ellipse opacity="0.5" cx="300.521" cy="83.3846" rx="14.8" ry="14.8344" transform="rotate(90 300.521 83.3846)" fill="url(#paint47_linear_72139_90)"/>
</g>
</g>
<defs>
<linearGradient id="paint0_linear_72139_90" x1="34.7937" y1="-1.80338" x2="34.7937" y2="27.6344" gradientUnits="userSpaceOnUse">
<stop stop-color="#0989B4" stop-opacity="0.01"/>
<stop offset="0.999399" stop-color="#53FFEE"/>
</linearGradient>
<linearGradient id="paint1_linear_72139_90" x1="-10.8845" y1="-1.76952" x2="-10.8845" y2="27.6" gradientUnits="userSpaceOnUse">
<stop stop-color="#0989B4" stop-opacity="0.01"/>
<stop offset="0.999399" stop-color="#53FFEE"/>
</linearGradient>
<linearGradient id="paint2_linear_72139_90" x1="126.048" y1="-1.76956" x2="126.048" y2="27.6" gradientUnits="userSpaceOnUse">
<stop stop-color="#0989B4" stop-opacity="0.01"/>
<stop offset="0.999399" stop-color="#53FFEE"/>
</linearGradient>
<linearGradient id="paint3_linear_72139_90" x1="80.4379" y1="-1.80334" x2="80.4379" y2="27.6344" gradientUnits="userSpaceOnUse">
<stop stop-color="#0989B4" stop-opacity="0.01"/>
<stop offset="0.999399" stop-color="#53FFEE"/>
</linearGradient>
<linearGradient id="paint4_linear_72139_90" x1="217.37" y1="-1.80338" x2="217.37" y2="27.6344" gradientUnits="userSpaceOnUse">
<stop stop-color="#0989B4" stop-opacity="0.01"/>
<stop offset="0.999399" stop-color="#53FFEE"/>
</linearGradient>
<linearGradient id="paint5_linear_72139_90" x1="171.692" y1="-1.76952" x2="171.692" y2="27.6" gradientUnits="userSpaceOnUse">
<stop stop-color="#0989B4" stop-opacity="0.01"/>
<stop offset="0.999399" stop-color="#53FFEE"/>
</linearGradient>
<linearGradient id="paint6_linear_72139_90" x1="308.625" y1="-1.76956" x2="308.625" y2="27.6" gradientUnits="userSpaceOnUse">
<stop stop-color="#0989B4" stop-opacity="0.01"/>
<stop offset="0.999399" stop-color="#53FFEE"/>
</linearGradient>
<linearGradient id="paint7_linear_72139_90" x1="263.015" y1="-1.80334" x2="263.015" y2="27.6344" gradientUnits="userSpaceOnUse">
<stop stop-color="#0989B4" stop-opacity="0.01"/>
<stop offset="0.999399" stop-color="#53FFEE"/>
</linearGradient>
<linearGradient id="paint8_linear_72139_90" x1="34.7937" y1="93.8274" x2="34.7937" y2="123.265" gradientUnits="userSpaceOnUse">
<stop stop-color="#0989B4" stop-opacity="0.01"/>
<stop offset="0.999399" stop-color="#53FFEE"/>
</linearGradient>
<linearGradient id="paint9_linear_72139_90" x1="-10.8845" y1="93.8612" x2="-10.8845" y2="123.231" gradientUnits="userSpaceOnUse">
<stop stop-color="#0989B4" stop-opacity="0.01"/>
<stop offset="0.999399" stop-color="#53FFEE"/>
</linearGradient>
<linearGradient id="paint10_linear_72139_90" x1="126.048" y1="93.8612" x2="126.048" y2="123.231" gradientUnits="userSpaceOnUse">
<stop stop-color="#0989B4" stop-opacity="0.01"/>
<stop offset="0.999399" stop-color="#53FFEE"/>
</linearGradient>
<linearGradient id="paint11_linear_72139_90" x1="80.4379" y1="93.8274" x2="80.4379" y2="123.265" gradientUnits="userSpaceOnUse">
<stop stop-color="#0989B4" stop-opacity="0.01"/>
<stop offset="0.999399" stop-color="#53FFEE"/>
</linearGradient>
<linearGradient id="paint12_linear_72139_90" x1="217.37" y1="93.8274" x2="217.37" y2="123.265" gradientUnits="userSpaceOnUse">
<stop stop-color="#0989B4" stop-opacity="0.01"/>
<stop offset="0.999399" stop-color="#53FFEE"/>
</linearGradient>
<linearGradient id="paint13_linear_72139_90" x1="171.692" y1="93.8612" x2="171.692" y2="123.231" gradientUnits="userSpaceOnUse">
<stop stop-color="#0989B4" stop-opacity="0.01"/>
<stop offset="0.999399" stop-color="#53FFEE"/>
</linearGradient>
<linearGradient id="paint14_linear_72139_90" x1="308.625" y1="93.8612" x2="308.625" y2="123.231" gradientUnits="userSpaceOnUse">
<stop stop-color="#0989B4" stop-opacity="0.01"/>
<stop offset="0.999399" stop-color="#53FFEE"/>
</linearGradient>
<linearGradient id="paint15_linear_72139_90" x1="263.015" y1="93.8274" x2="263.015" y2="123.265" gradientUnits="userSpaceOnUse">
<stop stop-color="#0989B4" stop-opacity="0.01"/>
<stop offset="0.999399" stop-color="#53FFEE"/>
</linearGradient>
<linearGradient id="paint16_linear_72139_90" x1="34.7937" y1="46.012" x2="34.7937" y2="75.4498" gradientUnits="userSpaceOnUse">
<stop stop-color="#0989B4" stop-opacity="0.01"/>
<stop offset="0.999399" stop-color="#53FFEE"/>
</linearGradient>
<linearGradient id="paint17_linear_72139_90" x1="-10.8845" y1="46.0458" x2="-10.8845" y2="75.4154" gradientUnits="userSpaceOnUse">
<stop stop-color="#0989B4" stop-opacity="0.01"/>
<stop offset="0.999399" stop-color="#53FFEE"/>
</linearGradient>
<linearGradient id="paint18_linear_72139_90" x1="126.048" y1="46.0458" x2="126.048" y2="75.4154" gradientUnits="userSpaceOnUse">
<stop stop-color="#0989B4" stop-opacity="0.01"/>
<stop offset="0.999399" stop-color="#53FFEE"/>
</linearGradient>
<linearGradient id="paint19_linear_72139_90" x1="80.4379" y1="46.012" x2="80.4379" y2="75.4497" gradientUnits="userSpaceOnUse">
<stop stop-color="#0989B4" stop-opacity="0.01"/>
<stop offset="0.999399" stop-color="#53FFEE"/>
</linearGradient>
<linearGradient id="paint20_linear_72139_90" x1="217.37" y1="46.012" x2="217.37" y2="75.4498" gradientUnits="userSpaceOnUse">
<stop stop-color="#0989B4" stop-opacity="0.01"/>
<stop offset="0.999399" stop-color="#53FFEE"/>
</linearGradient>
<linearGradient id="paint21_linear_72139_90" x1="171.692" y1="46.0458" x2="171.692" y2="75.4154" gradientUnits="userSpaceOnUse">
<stop stop-color="#0989B4" stop-opacity="0.01"/>
<stop offset="0.999399" stop-color="#53FFEE"/>
</linearGradient>
<linearGradient id="paint22_linear_72139_90" x1="308.625" y1="46.0458" x2="308.625" y2="75.4154" gradientUnits="userSpaceOnUse">
<stop stop-color="#0989B4" stop-opacity="0.01"/>
<stop offset="0.999399" stop-color="#53FFEE"/>
</linearGradient>
<linearGradient id="paint23_linear_72139_90" x1="263.015" y1="46.012" x2="263.015" y2="75.4497" gradientUnits="userSpaceOnUse">
<stop stop-color="#0989B4" stop-opacity="0.01"/>
<stop offset="0.999399" stop-color="#53FFEE"/>
</linearGradient>
<linearGradient id="paint24_linear_72139_90" x1="57.6159" y1="20.9658" x2="57.6159" y2="50.4036" gradientUnits="userSpaceOnUse">
<stop stop-color="#0989B4" stop-opacity="0.01"/>
<stop offset="0.999399" stop-color="#53FFEE"/>
</linearGradient>
<linearGradient id="paint25_linear_72139_90" x1="11.9376" y1="20.9997" x2="11.9376" y2="50.3693" gradientUnits="userSpaceOnUse">
<stop stop-color="#0989B4" stop-opacity="0.01"/>
<stop offset="0.999399" stop-color="#53FFEE"/>
</linearGradient>
<linearGradient id="paint26_linear_72139_90" x1="148.87" y1="20.9997" x2="148.87" y2="50.3692" gradientUnits="userSpaceOnUse">
<stop stop-color="#0989B4" stop-opacity="0.01"/>
<stop offset="0.999399" stop-color="#53FFEE"/>
</linearGradient>
<linearGradient id="paint27_linear_72139_90" x1="103.26" y1="20.9659" x2="103.26" y2="50.4036" gradientUnits="userSpaceOnUse">
<stop stop-color="#0989B4" stop-opacity="0.01"/>
<stop offset="0.999399" stop-color="#53FFEE"/>
</linearGradient>
<linearGradient id="paint28_linear_72139_90" x1="240.193" y1="20.9658" x2="240.193" y2="50.4036" gradientUnits="userSpaceOnUse">
<stop stop-color="#0989B4" stop-opacity="0.01"/>
<stop offset="0.999399" stop-color="#53FFEE"/>
</linearGradient>
<linearGradient id="paint29_linear_72139_90" x1="194.514" y1="20.9997" x2="194.514" y2="50.3693" gradientUnits="userSpaceOnUse">
<stop stop-color="#0989B4" stop-opacity="0.01"/>
<stop offset="0.999399" stop-color="#53FFEE"/>
</linearGradient>
<linearGradient id="paint30_linear_72139_90" x1="331.447" y1="20.9997" x2="331.447" y2="50.3692" gradientUnits="userSpaceOnUse">
<stop stop-color="#0989B4" stop-opacity="0.01"/>
<stop offset="0.999399" stop-color="#53FFEE"/>
</linearGradient>
<linearGradient id="paint31_linear_72139_90" x1="285.837" y1="20.9659" x2="285.837" y2="50.4036" gradientUnits="userSpaceOnUse">
<stop stop-color="#0989B4" stop-opacity="0.01"/>
<stop offset="0.999399" stop-color="#53FFEE"/>
</linearGradient>
<linearGradient id="paint32_linear_72139_90" x1="57.6159" y1="116.597" x2="57.6159" y2="146.034" gradientUnits="userSpaceOnUse">
<stop stop-color="#0989B4" stop-opacity="0.01"/>
<stop offset="0.999399" stop-color="#53FFEE"/>
</linearGradient>
<linearGradient id="paint33_linear_72139_90" x1="11.9376" y1="116.63" x2="11.9376" y2="146" gradientUnits="userSpaceOnUse">
<stop stop-color="#0989B4" stop-opacity="0.01"/>
<stop offset="0.999399" stop-color="#53FFEE"/>
</linearGradient>
<linearGradient id="paint34_linear_72139_90" x1="148.87" y1="116.63" x2="148.87" y2="146" gradientUnits="userSpaceOnUse">
<stop stop-color="#0989B4" stop-opacity="0.01"/>
<stop offset="0.999399" stop-color="#53FFEE"/>
</linearGradient>
<linearGradient id="paint35_linear_72139_90" x1="103.26" y1="116.597" x2="103.26" y2="146.034" gradientUnits="userSpaceOnUse">
<stop stop-color="#0989B4" stop-opacity="0.01"/>
<stop offset="0.999399" stop-color="#53FFEE"/>
</linearGradient>
<linearGradient id="paint36_linear_72139_90" x1="240.193" y1="116.597" x2="240.193" y2="146.034" gradientUnits="userSpaceOnUse">
<stop stop-color="#0989B4" stop-opacity="0.01"/>
<stop offset="0.999399" stop-color="#53FFEE"/>
</linearGradient>
<linearGradient id="paint37_linear_72139_90" x1="194.514" y1="116.63" x2="194.514" y2="146" gradientUnits="userSpaceOnUse">
<stop stop-color="#0989B4" stop-opacity="0.01"/>
<stop offset="0.999399" stop-color="#53FFEE"/>
</linearGradient>
<linearGradient id="paint38_linear_72139_90" x1="331.447" y1="116.63" x2="331.447" y2="146" gradientUnits="userSpaceOnUse">
<stop stop-color="#0989B4" stop-opacity="0.01"/>
<stop offset="0.999399" stop-color="#53FFEE"/>
</linearGradient>
<linearGradient id="paint39_linear_72139_90" x1="285.837" y1="116.597" x2="285.837" y2="146.034" gradientUnits="userSpaceOnUse">
<stop stop-color="#0989B4" stop-opacity="0.01"/>
<stop offset="0.999399" stop-color="#53FFEE"/>
</linearGradient>
<linearGradient id="paint40_linear_72139_90" x1="57.6158" y1="68.7812" x2="57.6158" y2="98.219" gradientUnits="userSpaceOnUse">
<stop stop-color="#0989B4" stop-opacity="0.01"/>
<stop offset="0.999399" stop-color="#53FFEE"/>
</linearGradient>
<linearGradient id="paint41_linear_72139_90" x1="11.9376" y1="68.815" x2="11.9376" y2="98.1846" gradientUnits="userSpaceOnUse">
<stop stop-color="#0989B4" stop-opacity="0.01"/>
<stop offset="0.999399" stop-color="#53FFEE"/>
</linearGradient>
<linearGradient id="paint42_linear_72139_90" x1="148.87" y1="68.815" x2="148.87" y2="98.1846" gradientUnits="userSpaceOnUse">
<stop stop-color="#0989B4" stop-opacity="0.01"/>
<stop offset="0.999399" stop-color="#53FFEE"/>
</linearGradient>
<linearGradient id="paint43_linear_72139_90" x1="103.26" y1="68.7812" x2="103.26" y2="98.219" gradientUnits="userSpaceOnUse">
<stop stop-color="#0989B4" stop-opacity="0.01"/>
<stop offset="0.999399" stop-color="#53FFEE"/>
</linearGradient>
<linearGradient id="paint44_linear_72139_90" x1="240.193" y1="68.7812" x2="240.193" y2="98.219" gradientUnits="userSpaceOnUse">
<stop stop-color="#0989B4" stop-opacity="0.01"/>
<stop offset="0.999399" stop-color="#53FFEE"/>
</linearGradient>
<linearGradient id="paint45_linear_72139_90" x1="194.514" y1="68.815" x2="194.514" y2="98.1846" gradientUnits="userSpaceOnUse">
<stop stop-color="#0989B4" stop-opacity="0.01"/>
<stop offset="0.999399" stop-color="#53FFEE"/>
</linearGradient>
<linearGradient id="paint46_linear_72139_90" x1="331.447" y1="68.815" x2="331.447" y2="98.1846" gradientUnits="userSpaceOnUse">
<stop stop-color="#0989B4" stop-opacity="0.01"/>
<stop offset="0.999399" stop-color="#53FFEE"/>
</linearGradient>
<linearGradient id="paint47_linear_72139_90" x1="285.837" y1="68.7812" x2="285.837" y2="98.219" gradientUnits="userSpaceOnUse">
<stop stop-color="#0989B4" stop-opacity="0.01"/>
<stop offset="0.999399" stop-color="#53FFEE"/>
</linearGradient>
<clipPath id="clip0_72139_90">
<rect width="350" height="144" fill="white"/>
</clipPath>
</defs>
</svg>
